<mxfile host="app.diagrams.net" modified="2022-03-28T14:46:28.930Z" agent="5.0 (Windows NT 10.0; Win64; x64) AppleWebKit/537.36 (KHTML, like Gecko) Chrome/98.0.4758.109 Safari/537.36 OPR/84.0.4316.42" etag="dbOpFgPI2H6KLu_FlgWG" version="16.6.2" type="github">
  <diagram id="C5RBs43oDa-KdzZeNtuy" name="Page-1">
    <mxGraphModel dx="1108" dy="452" grid="1" gridSize="10" guides="1" tooltips="1" connect="1" arrows="1" fold="1" page="1" pageScale="1" pageWidth="827" pageHeight="1169" math="0" shadow="0">
      <root>
        <mxCell id="WIyWlLk6GJQsqaUBKTNV-0" />
        <mxCell id="WIyWlLk6GJQsqaUBKTNV-1" parent="WIyWlLk6GJQsqaUBKTNV-0" />
        <mxCell id="8uIvvyFtM6gvIeRK4sEd-0" value="Стартовая страница" style="whiteSpace=wrap;html=1;aspect=fixed;" vertex="1" parent="WIyWlLk6GJQsqaUBKTNV-1">
          <mxGeometry x="340" y="230" width="90" height="90" as="geometry" />
        </mxCell>
        <mxCell id="8uIvvyFtM6gvIeRK4sEd-1" value="Главное окно" style="whiteSpace=wrap;html=1;aspect=fixed;" vertex="1" parent="WIyWlLk6GJQsqaUBKTNV-1">
          <mxGeometry x="340" y="348" width="92" height="92" as="geometry" />
        </mxCell>
        <mxCell id="8uIvvyFtM6gvIeRK4sEd-3" value="Данные населения" style="whiteSpace=wrap;html=1;aspect=fixed;" vertex="1" parent="WIyWlLk6GJQsqaUBKTNV-1">
          <mxGeometry x="140" y="460" width="100" height="100" as="geometry" />
        </mxCell>
        <mxCell id="8uIvvyFtM6gvIeRK4sEd-4" value="Критерии" style="whiteSpace=wrap;html=1;aspect=fixed;" vertex="1" parent="WIyWlLk6GJQsqaUBKTNV-1">
          <mxGeometry x="540" y="460" width="100" height="100" as="geometry" />
        </mxCell>
        <mxCell id="8uIvvyFtM6gvIeRK4sEd-5" value="Весовые коэффициенты" style="whiteSpace=wrap;html=1;aspect=fixed;" vertex="1" parent="WIyWlLk6GJQsqaUBKTNV-1">
          <mxGeometry x="270" y="460" width="100" height="100" as="geometry" />
        </mxCell>
        <mxCell id="8uIvvyFtM6gvIeRK4sEd-6" value="Буферная зона" style="whiteSpace=wrap;html=1;aspect=fixed;" vertex="1" parent="WIyWlLk6GJQsqaUBKTNV-1">
          <mxGeometry x="390" y="460" width="100" height="100" as="geometry" />
        </mxCell>
        <mxCell id="8uIvvyFtM6gvIeRK4sEd-7" value="Оптимум" style="whiteSpace=wrap;html=1;aspect=fixed;" vertex="1" parent="WIyWlLk6GJQsqaUBKTNV-1">
          <mxGeometry x="260" y="640" width="100" height="100" as="geometry" />
        </mxCell>
      </root>
    </mxGraphModel>
  </diagram>
</mxfile>
